/* XPM */
static char *result[] = {
/* columns rows colors chars-per-pixel */
"60 60 238 2 ",
"   c #4B3B0D",
".  c #2C4F19",
"X  c #334A15",
"o  c #2F541B",
"O  c #2F5B1C",
"+  c #395616",
"@  c #33551C",
"#  c #335D1D",
"$  c #3B5D1D",
"%  c #2F641E",
"&  c #3B6316",
"*  c #35631E",
"=  c #39641E",
"-  c #35691E",
";  c #3A691E",
":  c #3A701F",
">  c #345E21",
",  c #3A5E21",
"<  c #356421",
"1  c #3A6521",
"2  c #366921",
"3  c #3B6A22",
"4  c #3D6728",
"5  c #3C7221",
"6  c #5D4F0F",
"7  c #495707",
"8  c #5B5707",
"9  c #474F16",
"0  c #465A16",
"q  c #5A5517",
"w  c #635E0C",
"e  c #634E14",
"r  c #665719",
"t  c #4A670D",
"y  c #556B07",
"u  c #5D720B",
"i  c #42651C",
"p  c #486919",
"a  c #586913",
"s  c #497319",
"d  c #587419",
"f  c #636B0A",
"g  c #677906",
"h  c #6D730A",
"j  c #757A0C",
"k  c #696215",
"l  c #766717",
"z  c #677916",
"x  c #777812",
"c  c #416522",
"v  c #416B22",
"b  c #466B29",
"n  c #526C2F",
"m  c #4A7423",
"M  c #557825",
"N  c #4D6E34",
"B  c #6D6125",
"V  c #6D6A34",
"C  c #677A47",
"Z  c #767349",
"A  c #7B7952",
"S  c #887E08",
"D  c #867B16",
"F  c #847B58",
"G  c #558114",
"H  c #7B850E",
"J  c #6E9107",
"K  c #69821C",
"L  c #788918",
"P  c #779613",
"I  c #69842A",
"U  c #788C29",
"Y  c #718831",
"T  c #888407",
"R  c #8A830A",
"E  c #958603",
"W  c #978A04",
"Q  c #9C8C03",
"!  c #93870B",
"~  c #948B0D",
"^  c #9B8E0A",
"/  c #9E9105",
"(  c #9D920C",
")  c #898912",
"_  c #938A13",
"`  c #879615",
"'  c #8C9215",
"]  c #939314",
"[  c #999917",
"{  c #A39302",
"}  c #A59607",
"|  c #AC9B02",
" . c #A59A0C",
".. c #AA9C0A",
"X. c #B19F00",
"o. c #B19F0E",
"O. c #A49C13",
"+. c #A89C14",
"@. c #B09F1D",
"#. c #8BA512",
"$. c #9BA417",
"%. c #AFA007",
"&. c #ADA10C",
"*. c #B4A201",
"=. c #B9A601",
"-. c #BCA901",
";. c #B2A40B",
":. c #B5A90C",
">. c #BCAD0B",
",. c #BDB20E",
"<. c #A7A617",
"1. c #ACA414",
"2. c #ADAC1A",
"3. c #B3A415",
"4. c #B3AB13",
"5. c #B7A819",
"6. c #BBAC1E",
"7. c #A7B517",
"8. c #B9B618",
"9. c #839428",
"0. c #999826",
"q. c #8A9835",
"w. c #919E38",
"e. c #AC9D29",
"r. c #8CA72C",
"t. c #9DA837",
"y. c #98B732",
"u. c #A7AA27",
"i. c #B6AA25",
"p. c #BCAA2A",
"a. c #B8B524",
"s. c #BDAE36",
"d. c #A7B036",
"f. c #A5B935",
"g. c #BAB638",
"h. c #C2AF02",
"j. c #C5B201",
"k. c #CAB601",
"l. c #CDBA03",
"z. c #C5B509",
"x. c #CAB70B",
"c. c #C6B80D",
"v. c #CCBB0B",
"b. c #D1BC00",
"n. c #D1BC0B",
"m. c #C0AF13",
"M. c #C6BB14",
"N. c #CDBC12",
"B. c #C7BA19",
"V. c #C3BE1B",
"C. c #D1BD16",
"Z. c #C1AF23",
"A. c #C5B726",
"S. c #CCBB2C",
"D. c #D3BD26",
"F. c #C6BA34",
"G. c #D4BF36",
"H. c #BDC11B",
"J. c #BBC123",
"K. c #B8C73A",
"L. c #CBC116",
"P. c #C7C21A",
"I. c #D4C41B",
"U. c #E0CA1D",
"Y. c #CCC525",
"T. c #D5C424",
"R. c #D7C827",
"E. c #D5C32D",
"W. c #DCCC2C",
"Q. c #D5D02F",
"!. c #DDD22B",
"~. c #C7C437",
"^. c #D3C433",
"/. c #DBC534",
"(. c #D8C83B",
"). c #DDD233",
"_. c #E2CC27",
"`. c #E2D42A",
"'. c #EBD62B",
"]. c #EDD628",
"[. c #F1D528",
"{. c #F4DA2B",
"}. c #FCDE2C",
"|. c #E3CA33",
" X c #E3CC3B",
".X c #E5D433",
"XX c #EBD632",
"oX c #EBD834",
"OX c #ECD73B",
"+X c #F4DB35",
"@X c #F9DE36",
"#X c #F4DD3A",
"$X c #FFE034",
"%X c #FEE13C",
"&X c #9BA140",
"*X c #B7B546",
"=X c #BBB345",
"-X c #C7BB44",
";X c #CEBE4C",
":X c #C9CA45",
">X c #D7C847",
",X c #CDD147",
"<X c #D3D34A",
"1X c #DDD54A",
"2X c #DBD64D",
"3X c #D6C654",
"4X c #DED657",
"5X c #E3CC45",
"6X c #E3CD4B",
"7X c #E5D649",
"8X c #E1D54D",
"9X c #ECDC4D",
"0X c #F4DC47",
"qX c #F3DD4B",
"wX c #E4CE54",
"eX c #E4CF5B",
"rX c #E4DA51",
"tX c #EBDC51",
"yX c #E5D45A",
"uX c #F4DE51",
"iX c #F8DF50",
"pX c #F6E047",
"aX c #FFE344",
"sX c #F5E04E",
"dX c #FDE34C",
"fX c #F3E055",
"gX c #FEE553",
"hX c #FEE65A",
"jX c #D6C96B",
"kX c #DFD06F",
"lX c #E9D764",
"zX c #E9D967",
"xX c #E7D776",
"cX c #EEE060",
"vX c #FCE663",
"bX c #F8E56A",
"nX c #FBE878",
"mX c #FEEC87",
/* pixels */
"1 3 * < < < % - 3 < 3 2 2 : ; ; 3 v < * # * < < # # - 3 2 3 3 3 ; : * * ; = * * O = i 1 3 = # # * 1 > * 2 1 - - 3 2 - 3 ",
"3 = * < > < < 2 1 1 3 * * ; = = 1 c < 3 < 4 1 3 1 * - * 2 2 1 = 2 = - 3 ; = * * = = = $ v 3 c 1 = 3 < < < 2 2 ; - 2 3 3 ",
"3 2 * * > # # ; c < 1 < - * * < = * 1 1 1 1 1 4 3 * * * < 1 3 ; # < 3 < = v = 1 = c 3 = # ; v c ; 3 3 < 1 < 4 ; 3 2 * 3 ",
"; - - 2 1 < # 2 c < 1 < ; 1 < < < 1 1 4 < < < 4 3 3 * ; 1 2 2 3 < 2 2 < 3 ; = = = ; ; v * = 3 i 1 3 5 2 < = < * ; * * ; ",
"5 2 % 2 1 1 1 1 > 1 3 1 * 1 4 < > > < 4 < , > , b 1 1 < 2 2 2 < 1 1 3 2 1 = 3 = = ; ; = 3 = 1 1 1 3 - # = ; = * - * = * ",
"2 2 - < < # < 1 1 , c b 1 2 > , 4 < , 1 2 < N A A n = 1 1 # , < 1 1 2 1 ; = c 1 = ; 3 * = = * # < < 2 * < * 2 3 3 1 1 1 ",
"* 3 3 < 1 * < 4 c 0 6 V Z C n b c b 4 4 N A q.F B r i c * $ > < < < * 1 1 $ 1 $ = 3 v 4 1 = < 2 4 1 1 = 2 % 2 < 3 3 1 i ",
"; ; ; * 2 = 4 3 < 7 6 6 r V Z A A A A Z Z V V B l x i 1 , < < 1 < 2 1 1 3 = # < # 1 c 3 1 1 1 = 2 < * * * * * < 3 3 3 2 ",
"2 - 3 3 * - 3 - * + 8 8 w w w w B k r w w h x j x f = = < 1 1 < # 3 3 3 v ; = = # = = 3 = , 1 < * > * < < 2 < 2 - 5 5 2 ",
"3 2 2 3 2 2 - * * & 7 y h g h h j j j j x j h g f p 2 # < > > > * < 1 3 3 3 = c ; c < - 3 * < 1 2 2 2 2 2 < 2 % : 2 5 - ",
"3 - - 3 * * 2 * : : y 7 y g g J g g g g g g u u d - - 1 < < 1 < * < < = ; = v 1 = 1 = 3 = = 1 3 2 2 2 2 2 2 3 * 2 * - 2 ",
"2 3 * - 2 2 - 2 & s J y d u y d y t t y g L t.d.U % * 2 < > < > * 3 > < 3 2 # , c c c 3 = * 3 * 2 2 2 < 2 2 3 ; ; * % - ",
"2 - < 2 2 * % 2 - G J y.f.P I U m 1 p J #.f.,X*Xq.* 1 3 < < * < < 2 > 2 < < # > , , , , 1 3 v ; * * - 3 4 3 ; ; 3 ; = ; ",
": 2 - * % % 2 2 s J r.K.y.J y.y.1 > d #.7.,X,X*Xd.M 2 3 # 2 # < 3 1 < 1 < $ < c 1 $ , , = 3 * = 1 1 3 3 * - ; * 3 ; 3 * ",
"3 2 * ; % 2 < s P #.K.,X` P K.r.= s ` 7.a.<X<X=X=Xq.; * 1 2 O < 2 * # = = < < c < = 0 4 v 5 * ; = 1 * ; - % % * 1 * = 1 ",
"* - ; ; 2 = z ` 7.K.<Xf.P y.~.r.z ' 7.7.K.2X2X=X=X-XM * 3 3 2 < 1 # # < 1 # 1 1 c 1 c 4 * ; 2 3 ; * - 2 % - ; ; * * 1 3 ",
"* 3 = = 3 K $.8.J.,X2X9.` f.,Xd.' [ 8.8.(.2X2X:X=X3Xt.c 3 3 - = * < < 1 < 4 4 4 $ , , 4 1 * ; = = = * # * 2 ; ; * = ; 3 ",
"3 = - 1 d $.7.P.~.4X:XM ` K.,Xg.[ <.8.8.<X2X2X:X=X;X>Xq.= * * = # 2 1 < > < , 4 1 c 1 = 1 3 ; = c 1 2 2 2 3 ; * 3 ; 1 3 ",
"3 2 * v [ 7.P.8.<XrX*Xd $.(.2X~.[ 4.,.8.2XrXrX>X=X;X>X>XY < % 3 - 2 1 < < < < 2 3 1 1 = 1 1 1 * c c 1 & * 3 ; 3 3 1 1 1 ",
"= < 4 z <.V.P.Y.4XtXq.L a.,X2X<XO.1.,.A.2XrXrX<Xs.-X>X6X>XI % 3 3 4 1 2 < > 2 1 = 3 * * 2 1 3 1 c 1 = * 1 = = 3 3 3 * 3 ",
"# 3 p ' ,.M.M.>XrXrXU ] a.2X2X8Xi. .,.V.2XrXtX7Xe.-X5X6X5X~.I 1 2 3 2 < 1 2 4 1 * = * * - * 2 3 = , # # * 1 1 3 4 3 ; ; ",
"; = d <.M.L.V.8XtX8X9.[ 8.1XrX9XF. .:.B.8XrXtXtXZ.e.;X6X6X6X:XY < 1 < * 3 1 = 1 * ; = 1 3 5 - * = $ # * 1 1 * 3 ; = * 3 ",
"c $ z 3.M.L.Y.tX9X1X' O.8.<XrXtX1X .;.c.8X9XtXsX X^ e.6X6X6XwX>X9.4 * * = 3 3 1 = * ; = 2 3 5 < 1 < = > < 2 < 3 3 1 3 2 ",
"3 1 H 4.M.N.^.cXqX9X[ O.M.^.tXtX9X6.| >.>X9X9XsXiXZ.! Z.6X6X6XwX3Xt.m 1 = ; = = ; * * * * = - - 2 # < * * 2 2 < * 2 3 - ",
"3 1 ) :.L.L.^.cXpXpXi.( M.A.yXtXgX(.{ *.Y.9XtXuXiX0Xo.! s.wXwXwXwXwX=XV 5 - 2 * - ; # * O < < % # < 2 < < 1 < * * 2 < 1 ",
"1 , ) :.l.l.^.bXpXdXS.^ ,.c.4XfXqXqX3.| >.7XsXqXiXdX X{ Q =XlXwXwXeXeX;Xq.m % 2 ; ; * 2 * 2 % % * < 2 < $ < = - 2 1 1 1 ",
"3 ; T ;.c.l.E.bXpXdX X( &.v.~.bXqXdX/.{ X.C.9XuXdXiXdXG.Q Q s.kXlXwXeXeX4X*XV 2 2 2 * * 3 < < % < 2 1 < < * 3 < < 1 = * ",
"3 - H %.j.k.Y.nXpXdX0X+. .z.N.zXhXdXiX3.| -.D.uXdXgXdXgXF.Q Q i.jXxXeX3XeXeXjX&XM 3 < * < 2 * * * < < < 2 1 4 * < 1 3 2 ",
"; * z | j.b.v.nXdXaXdXA./ :.k.>XbXdXgX X} X.j._.iXdXgXgXiXp.Q { o.;XmXkXeXeXeXwX3Xw.m > # # * = # * 2 * % < < 2 * < 1 * ",
"3 * a } -.l.l.zXhXaXdX.X( %.j.N.xXhXdXgXS.| h.k.|.gXdXgXgXiXZ.S { X.e.jXxXlXwXwXwX>X-Xq.M 1 * % 2 2 3 * O # 2 < * % * - ",
"5 * s / *.l.k.2XvXaXdXpX5./ -.k.(.mXgXgXiX6.| j.v.5XhXgXgXgXiXZ.E Q | o.s.jXxXeX6X5X5X5XF.t.M 3 2 < 3 * < < 1 # % * 2 3 ",
"# < v T X.k.b.E.bXaXaXdX/.( | j.l.cXnXgXgXqX3.*.k.n.>XuXgXgXhXiXF.E E } X.o.s.;XkXwX6X X X X/.p.U m 3 1 2 2 < * * < < 3 ",
"* * * j | h.b.N.bXaXaXdX0X3.{ =.k.D.mXvXgXhX9X3.X.k.k.F.cXgXgXhXgX(.^ E / | X.o.5.-X3X6X5X|./.|.W.A.u.U d 3 2 * < * * 3 ",
"= < < d { -.b.l.wXdXaXaXdX/./ | h.k.6XmXhXgXgX9X5...j.x.g.lXgXgXgXhX7X@.E Q } X.X.X.X.Z.F.G./././.E.G.S.a.u.P I m i 3 = ",
"* = * = T *.k.b.R.hX0XaXaX0X6./ X.h.n.lXmXhXgXgXqXp.} -.j.B.lXvXgXdXgXiXS.^ W Q { X.X.X.X.o.3.Z.A.S.S.S.F.a.a.a.) r $ * ",
"< 2 * * h | h.b.n.tXaX%XaXdXOX} { X.j.N.bXmXgXgXhXgXS.| | h.c.1XvXgXdXdXdX0X5.^ Q Q { | X.h.X.X.&.&.4.5.6.a.a.[ q r q 4 ",
"= , # 2 p Q -.b.l./.aX%X%XaXaX/.{ { X.j.N.bXmXgXdXgXgX X5.| =.j.^.cXhXdXdXdXdX|.5.E E E / | | o.;.3.4.4.1.2.<.<.k   9 1 ",
"< , # 1 i j X.k.b.v.0X%X%X%X%X%XD.{ { *.h.n.lXnXhXdXdXdXpXS.;.| -.N.7XvXdXaXaXaX@X|.5.^ S S E E ^  . .+.1.<.<.<.[ k @ 2 ",
"# # = 1 # a { -.b.b./.$X$X%X%X%X%XD.{ { X.h.v.tXnXgXdXdXdXaX#XD.;.X.h.E.qXgX0X%X0X%X@X|.Z. .S S S R R _ ] ] ] ' L s 2 1 ",
"> > * < < = T | k.b.n..X$X$X$X$X@X@X_.o./ | -.z.OXbXhXaXaXaXaXaX+XD.;.=.z._.0X0XaX@X#X#X#XXXE.Z.[ ! R R x x z d ; - 2 < ",
"> < < < # * d { -.b.b.C.[.}.}.}.}.}.$X}.I.| } =.h.T.uXgXaXaXaX@X%X%X'.T.5.-.c.R..X#X#XOXoXoXOX.X).Y.a.0.l v * # * # > O ",
"# @ O < O @ = H X.h.b.b.N.[.}.}.}.}.}.}.}.[.C.;.| =.x._.@X%X%X@X@X@X@X$X'.C.;.=.z.N.T.W.).).).).).Q.0.l B c ; * * * > < ",
"* O # O O > < p W X.j.b.b.n.].}.}.{.{.}.}.{.{.'.T.m.*.=.x._.XX@X@X+XoXoXoXoXR.&.| >.z.c.M.M.Y.P.Y.Y.D e e 1 ; # @ * < 2 ",
"O # > 2 > * < O u / *.j.b.b.n.I.[.{.{.{.{.{.{.'.'.'.T.5.| -.x.I.`.oXoXoX.X`.!.Q.1.( ..z.c.L.L.P.P.P.V.O.k $ * * = * > > ",
"< @ O > O * @ # @ h { *.h.b.b.k.L.U.].{.].].'.`.`.!.!.R.m.} ..z.z.N.R.W..X!.!.^.i.O.^  .:.4.,.L.B.P.P.H.I # < = = * < # ",
"2 < < # > @ O > @ $ j } *.-.k.b.l.k.L.I.!.`.!.!.`.!.!.R.i._ Q ..:.c.M.M.B.Y.Y._ l R ^ (  .1.1.<.1.O.' d i = 1 # 1 = * - ",
"= < > * O > @ > # @ @ h { | =.h.l.L.l.L.L.L.L.I.R.R.Y.2.l D ^  .;.4.c.M.L.P.P.D e l R ! ~ ~ ~ R x a $ $ $ = 1 = # < 1 * ",
"* 2 # # > O > @ @ . . @ a T } o.*.>.j.z.l.L.L.L.L.P.P.$.r l ! ( O.1.1.2.2.8.7.[ 9 X 9 0 t p 0 & @ # # = 1 = # < 2 # < * ",
"< # # O # > @ # # O O o . + a j ^  ...&.;.4.4.4.4.2.2.$.e 9 0 f j ) _ [ [ ` L d 1 # @ @ * * = = $ 1 1 ; * = # < 2 < < < ",
"# # # > > > < > @ < * # # o o @ 0 a z j ) ) _ ] ^ ' ` z 0 o # # # # i p v i = < $ = = = < 1 = $ $ = # * * < % % 3 3 < % ",
"2 # * # @ > > 1 1 1 * = < @ 2 * * * O @ + & 0 & i $ $ @ * * = * # = # # = 1 1 < # = = = < * $ 1 = $ < 2 < < 2 < 1 3 * # ",
"# < # = # $ 1 1 3 1 @ * 1 2 > * * * * & * * # * * = * < & * = * = 1 * = i = # # 1 & ; # $ # # 3 < $ 1 3 * < * > < < 2 * ",
"= c = = 1 * 1 ; = 1 * = * * # * * * ; 3 * * * * O < 3 = * * = = $ = 4 = 1 < < $ ; 3 = = = * = 1 1 < , 1 % % 2 < @ 1 2 < ",
"< 1 = * - 1 = = = 1 * * # * O O % * # 2 = ; * % * * 1 = = # * 1 1 v = ; = # $ 1 1 3 ; ; = * 1 c 1 = # < # * < < = 3 < 1 ",
"< < < * ; * - ; * # 2 3 * * < < * % * @ # * * * < = 3 1 $ = = 1 1 3 = = = 1 # 1 3 * * 1 3 1 1 < = ; = < < $ < < 3 3 * = ",
"2 # < * < * 2 3 * = * * * * 2 2 * O # * < 2 1 3 1 * * < * = , < < 1 4 * * < 1 1 * - ; i = = * 2 * * = 4 < < < ; ; * * ; ",
"> # * O * % < 4 * 3 3 * % & * * * O 2 1 < < < < < < < < # = ; = = = = * ; 3 - ; ; ; - * ; 1 $ * 1 * < , ; ; * ; 5 ; < < ",
"< > 2 2 # 2 O 1 * ; 1 * * * - * O * * 2 < < < < > 1 < 3 < 1 * * = * * 2 i ; = * ; ; - * = 1 = * > # = 3 * - - * * ; * * ",
"> > < 1 2 < % < - - - * * * 3 3 = = = # * * * * 2 3 1 3 2 * 2 < - * * ; ; = * & ; 3 = ; $ 1 1 * = 3 1 ; ; ; = * * * 3 2 ",
"< < 4 3 < 2 2 % - 5 - % # 3 3 3 ; * * = * * 3 2 < 2 2 2 2 < < 1 ; ; * ; ; * * ; = = & * = 3 2 * = * 1 2 3 3 # * * ; * * "
};
