/* XPM */
static char *result[] = {
/* columns rows colors chars-per-pixel */
"60 60 161 2 ",
"   c #1E3610",
".  c #282616",
"X  c #222D12",
"o  c #2B2118",
"O  c #2C2919",
"+  c #322B1D",
"@  c #283116",
"#  c #223D13",
"$  c #2A3B16",
"%  c #2E331A",
"&  c #2C3C1A",
"*  c #34301D",
"=  c #323F1C",
"-  c #3A2E21",
";  c #3D3123",
":  c #423626",
">  c #473A29",
",  c #4C3D2B",
"<  c #503F2C",
"1  c #254414",
"2  c #294416",
"3  c #264916",
"4  c #2A4C17",
"5  c #2E421B",
"6  c #2C4D19",
"7  c #32451D",
"8  c #304C1C",
"9  c #2D5417",
"0  c #2D531A",
"q  c #2F5A1A",
"w  c #32551B",
"e  c #335D1D",
"r  c #385E1D",
"t  c #2F641B",
"y  c #2F681D",
"u  c #35631E",
"i  c #39651E",
"p  c #36691E",
"a  c #3A6A1E",
"s  c #3A711F",
"d  c #3D4E22",
"f  c #375120",
"g  c #3C5222",
"h  c #345E20",
"j  c #395D21",
"k  c #366421",
"l  c #3A6521",
"z  c #366921",
"x  c #3B6A22",
"c  c #3C7121",
"v  c #424426",
"b  c #454A26",
"n  c #4D422B",
"m  c #464B28",
"M  c #4B4D2A",
"N  c #54432E",
"B  c #524D2E",
"V  c #584A2F",
"C  c #455326",
"Z  c #435C24",
"A  c #4A5D27",
"S  c #4B532A",
"D  c #465E2A",
"F  c #4B5A29",
"G  c #52522D",
"H  c #555C2E",
"J  c #564531",
"K  c #594731",
"L  c #554932",
"P  c #5C4A34",
"I  c #5B4E39",
"U  c #5C5333",
"Y  c #5C5C33",
"T  c #5C523A",
"R  c #624E36",
"E  c #624F38",
"W  c #655137",
"Q  c #625D36",
"!  c #655239",
"~  c #6B563B",
"^  c #655A3C",
"/  c #6E593C",
"(  c #725B3E",
")  c #426424",
"_  c #496527",
"`  c #416A23",
"'  c #466428",
"]  c #4C642B",
"[  c #53622E",
"{  c #53682E",
"}  c #566331",
"|  c #5A6632",
" . c #626336",
".. c #666038",
"X. c #6A6B3A",
"o. c #71683D",
"O. c #655A41",
"+. c #6C5C41",
"@. c #755E41",
"#. c #795F42",
"$. c #6D6245",
"%. c #6E6549",
"&. c #756144",
"*. c #7A6244",
"=. c #7B6A44",
"-. c #716449",
";. c #7B6649",
":. c #776E4F",
">. c #7D6A4B",
",. c #7B7253",
"<. c #816B47",
"1. c #816B4C",
"2. c #89704B",
"3. c #836E51",
"4. c #847556",
"5. c #897452",
"6. c #8D7957",
"7. c #847B5C",
"8. c #8C7C5C",
"9. c #917E5B",
"0. c #897B60",
"q. c #8D835F",
"w. c #8D8362",
"e. c #8F886A",
"r. c #948464",
"t. c #958A66",
"y. c #9D8B67",
"u. c #958C6B",
"i. c #9B8C6B",
"p. c #9B916C",
"a. c #A08E67",
"s. c #A2936D",
"d. c #A49571",
"f. c #A49B74",
"g. c #AA9D74",
"h. c #A69878",
"j. c #AC9B78",
"k. c #ABA177",
"l. c #AEA37B",
"z. c #B1A47C",
"x. c #B3A97E",
"c. c #BAAB7F",
"v. c #ACA381",
"b. c #B2A783",
"n. c #BAAE82",
"m. c #BBAE8B",
"M. c #BEB385",
"N. c #BDB38B",
"B. c #C1B486",
"V. c #C2B78B",
"C. c #C5BA8C",
"Z. c #C9BE8E",
"A. c #C4B993",
"S. c #C9BE93",
"D. c #CDC293",
"F. c #CAC199",
"G. c #D1C695",
"H. c #D3C897",
"J. c #D1C79B",
"K. c #D4CA9A",
"L. c #D9CFA0",
/* pixels */
"l x u k y k h p l k l z z s i p x ` k i e u l k e e p z p x x x a s u p i i u u q i ) i a i r r p l j u k z p p x z p z ",
"x i u k h k k k l l x p u a i p x l l l i i k x l u u z z z i l k p p x a i u u i i i r ` a l i i l k k z k z p p z x x ",
"x z u u h e u p x l l u p p p i l k l l l l l x z p k r k z x x u k x k i ` i a i ) x i e a ` ) a x x k l k x x k x p x ",
"a p p z l k k k l l l i i l j h j l l x k z k x x x u i x k z x k k z k x i i i u a a ) u i i ) l x x z k k l u i u u i ",
"x z y k l l l l j k x l u l l k h k l l l j k u l x l u u k k l l l x k u p x i i a a l x i l l k x p u i a u p p u i p ",
"p z p z k e k l l l l l l z j l k l j l k k p u l u k l l i h k k l k x l i ) l i a x i r i k e l l k u k u k l x l l i ",
"p x x k k k j l ` j l l z x l j j x h k x x z k i p l ) u e j k k k i l ) r l r i a ` l l i k p l l l i k y z k x x i ) ",
"a x x k k l x x x l l k p p k e k x k e k z p p l j i l j k l z l p l i x u r k r i ) z l l x p z k u u u u u k x x a k ",
"z p x x u p x u p p x l l p p p l l k k l p u l l r i p j k l k u x ' F G S Z p e i l l u k l j k h k k k z k z z c c z ",
"x p z z z p p y u k x i i a p p l k u p i x u x p k k r k h j h k ] -./ R K V S i x i p l u l l z k z z z k y z y c c z ",
"z p p x p k k k z u u l l p c x u z i p u i l l x p k x k z z k k Q ( ~ ;.~ K P G ) i a a i l x z z z k z z z p z y u z ",
"z p p x k z x x l ' ' l x p a i i x i p u p z u k p k k k h h h l ~ ( ( ( ;.@.K N V D x i i i p u z z z k z x x i p u p ",
"z k u z z k x | ! U P P G S F Z Z ` a i p p u u u q k x k y k u ' ( @.@.( ( &.@.P K V F x x ` p k u p x x x i x a l i a ",
"s z u p t ] =.1.&.#.@.~ E K J J n M S A ] ` u i i p x k h k q k D ! ! ~ ( ( @.@.;.R N N C a i i p x x x e p p r l a x u ",
"x z u a k ^ ( ( @.@.#.;.;.;.#.+.E K K K K U Q [ ] ) ` u l u k h A ( / / / ( ( ( @.#.K N K C k x u l u p p u u p x p i l ",
"u p a a ' / ( / ~ ~ ~ ~ ~ ( ( @.*.*.;.( ~ ! R R P L G C g D x y Y #.@.@.( ( @.( ( ( ;.P , N C x l a p p y p p p e p l l ",
"u l u u ] ( ( ( ( ( ( ( ( ( +.+./ / ( ( &.*.*.&.@.! I J N J B M ^ *.*.( ( ( ( ( ( ( ( #.R < < L i a u e u z a l u p a x ",
"x l p p A ( ( / ~ ( ( @.( ( ( @./ / ( ( ( / ( @.@.;.#.#.@.~ R J R @.( ( *.( #.( ( ( ~ @.@.R < < G l i k p x a p l x l x ",
"l k i l H ( ( ( ~ ~ ~ ~ ( @.9.h.u.7.-.@.@.( ( ( ( ( ( ( @.@.#.#.( ( ( ( ( ( ( o.( #.#.( ~ R R < K G l i p l a a l l i l ",
"p l i l [ ( ( ( ( ( ( ( ( 3.L.K.L.L.N.,.+./ ( ( ( ( ( ( @.@./ +.( ( ( ( ( ( ( ( ( ( @.@.#.#.#.W K < b r i l i l x x p l ",
"u x a i | ( ( ( #.( #.( ~ 9.K.G.S.D.K.s.T i.0.$.@.&.>.&.@.@./ / ~ ~ ~ ~ ( ( ( ( ( ( / @.@.( ~ +.N < , b j x i x x x a p ",
"i i i l | ( ( ( ( ( ( ( @.y.J.Z.w.0.z.q.-.J.V.:.+.N.F.7.! +.@.@.( @.( / ~ / ~ / ( ( @./ ~ ( @.( ( K N K S l k x x l p l ",
"` r r i H ( ( #.( ( #.( ( s.H.b.%.! &.( ;.B.G.w.e.L.H.i.J i.A.w.$./ #.&.&.@./ / ~ ~ ~ ~ ~ ~ ( ( @.@.R K N S k x a l l z ",
"a i i a H <.#.( ( #.( ( @.d.H.G.F.v.:.+.@.i.G.M.A.J.A.+.K l.K.b.T 0.A.A.N.v.p.4.#.@.@.~ ~ W R W ! ( @.< , J S k p k x p ",
"x l a a A / ( ( ( ( ( ( ( s.H.G.G.J.w.L W 1.B.G.J.D.,.L / 6.C.z.I b.K.G.G.H.G.D.v.,.+.@.( ( ~ ~ ! ~ R K < < J G u k k x ",
"l j ` a _ ( / ~ / ( ( #.( y.H.C.x.Z.w., K ( j.J.D.i.L ~ ( 6.m.r.+.6.M.D.G.G.D.G.K.n.-.~ ( ( #.( @.( #.#.@.P K N C x x l ",
"z p p i _ ( ( ( #.#.( ( ( 9.G.B.7.:.&.~ / 1.S.H.D.t.T ~ / z.L.f.$.~ 1.y.D.G.D.D.G.M.~ ~ #.#.#.( @.( ( ( @.@.K K K ) u p ",
"x p u u a ( ( ( ( ( #.( ( *.B.H.F.j.7.-./ j.K.G.G.V.,.^ ~ j.G.M.-.K / 3.D.G.x.,.9.>.~ #.#.#.#.<.*.<.#.<.;.@.! N K S l k ",
"i u a a a ..~ ~ ( #.#.#.( ( a.G.G.K.J.7.+.S.J.M.k.G.f.O.~ d.H.M.$.L ! ;.D.G.x.+.~ ( ( ( ( ( ( ( ( ( ( #.#.#.;.R J , l p ",
"a r p a s | ( ( W W ~ ( *.( *.a.B.D.H.t.O.S.G.p.%.Z.Z.:.P f.G.M.O.L / 1.S.G.k.^ R W W ! ~ / ( ( ( / ( / ( / ! R , > j u ",
"x p a s p ) o.( <.#.( / / ( ( ( ;.8.y.;.R d.n.+.I j.H.p.L r.K.x.I P / 3.D.G.g.O./ ( ( / / / ( ( ( ( ( ( / ! R K > d z x ",
"r i a p i o.2.<.o.( ( ( ( ( ( ( ( ( ( ( ( ;.;./ ( 2.c.i.J 4.G.l.L P ( 3.D.G.g.~ / ( ( ( ( ( ( ( ( ( ( @.( ( ( W n g k x ",
"u p u x a _ ..o.<.<.<.<.#.#.( ( / / ( ( @.( ( ( ( ( #.@.( <.j.a.J ~ ( <.B.K.d.^ ( ( ( ( ( ( ( ( ( ( ( ( ( ( ( I r i i x ",
"k k l x s i ` ` ` _ { | X.o.=.<.<.;.#./ / / / ( ( / ( ( ( ( ( #.( ( ( ( 9.Z.8.R @.@.( ( ( ( ( ( / ( ( ( ( ( Q Z j i l u ",
"k u u i u a a i a a a s a i ) _ L L R ! W / #.*.*.@./ ~ ~ ( / W ~ ( ( @.#.5.#.( ( ( ( ( #.( ( ( #.( ( ( ( W ) p k h u k ",
"l l i u a a a i i i a a a i ` a m : > ; o = ' ] [  ...( o.*.*./ ~ ( ( ~ ( / ( ( ( @.#.#.*.*.#.~ W W W ~ H ) u e l l l x ",
"l l h l i u i u a a i p s ` a i m , , : o $ k x p u l j _ ] |  .( ( ( ( ( o.( ( ( ( ( ( ( ( *.o.*.( G j k u u i j l l l ",
"l j l x l i a u s a a a s a p i m , < > O $ l k z u u u r k i l / ( ( ( #.( ( ( ( ( ( ( ( ( ( ( ^ } x l x i l i l k k x ",
"k h k l r l u p a ` x ` i l i u M J L , - & z k z z z x l k u l ^ ( ( ( ( ( ( ( ( ( ( ( ( ( ( Y l k z z a p p e l a k x ",
"j k p k l i i k i a a i p l k i G J K , - 5 x z x z y p l l i l Q ( ( ( ( ( ~ ~ ( ( ( ( ( Q ] i u e u z x i l u u l k k ",
"h l z k k k x z p p i u p u u r B P P , - & k k k k q u l p x x Q ( ( ( ( ( @.~ ( / / Q A x x ` ` r u r u x i u k k h h ",
"h h k k h h z x p u q u q e u w B P R J - & q q q e 0 e u u k e Y ( ( ( ( ( ( ( ( ~ [ ) k u u x i i i u q p x k k k h l ",
"k u k h h k z x p u e r u r q w L I P n - & 0 0 w 0 9 0 0 w 9 0 F ( ( ( ( ( @.! n ) i i l k l l x i p z u x x u e k k z ",
"e k z x k l l k u u e q e 0 0 9 M E P N ; @ 2 6 4 6 4 0 0 4 4 4 w ~ ( ( / ! K : . 9 a u u u x x z x i e t k p u i u h k ",
"k h h k h l k l u e e q q e 0 0 M V P N * X   # 3 4 3 3 2 3 1 3 2 b C S J , , - . 6 e r r q u u u i u j k j x l x x l r ",
"x x l k k k k l x l e r e q h q 8 v V > * X # 4 4 1 1 #   # # 1 3 1 3 5 < J J : O 4 9 e 9 w e u p l l i l ` l i l l p z ",
"x x k k k x l l l x l l l j j k q 8 w 8 5 6 6 6 4 3 1 1 1 1 1 # 1 3 3 7 J L K : + 2 6 w w e e w u r r ) i ` l k k k l u ",
"x x u k k l l j j e r l l l i x i q r e q w 0 0 9 9 9 4 3 3 3 3 2 3 3 7 J P K > + 2 6 w 0 q w w w e r i l x k l z e k u ",
"k k t e k k j k k p i j k k x i a p a i p u r e e e w w 0 q 0 0 0 6 3 5 n P L > + # 4 8 q q e e r r k p u l u k z x z k ",
"k u j l j k k k u l l l k k i p l a i u i x ) i u e u e e e e r q 0 4 w d n N : % 2 w e r r r r u r e p u k k k x x z k ",
"z h l u j h j x l x a x l j k l l a a i p a i p l u u r p l i u k k e w r j f 6 4 r i i r r r l i r i x z k z k l x k u ",
"k k u i k j x x x l u i x x l k l a p i i u p u u x i l i a x a l x i x i k e r ) i a u u u r x i j x x k k k k k k k u ",
"i l x l l x l a a l i x u u e p p p x x i i p p k p x x i u i l l l ` x i l l i x x a i i p l x l l l l u t k l r l k k ",
"l ` i i a x i i i l i k u k e u u u p l a a u u p u x l l i l l ` ` l x l l u ) x x a a l i i ` l l k l u k k k l x l x ",
"l k k p x z a x k u x x k p k k u k u e u p p i k x x l l i x x ` x l l i x r l x z p a ` l l l l x l l k k l z x l k i ",
"k u k k z u z x k l p k u k x x k t k k k l l x x i k l l i k l l l x k p l l l p a i ) i l l l u z l l l k l x a u u i ",
"k k k h h y k x k l x k e p p k h e k x k k l k l k k k h z z l l i i k i a a i a a a p a l u i k k l i x p p a z i u k ",
"h j k y k z h z l x l z u u p u h t k l l k k k l z l x l z k k a u p z ` a i i a s i u i i l u h j p l a p a u i a u k ",
"h h k x k k k k p p z k u p x x l i l u k u k u z x x x z l l l a u i a ` i u p a a i a u ) i u l l l l i i p u u p l z ",
"k k x x k z z y x c p y u x x l l p u l u p z x z x z z z k l l p a p p a u u i p ) r u i x k u i p l p x a e u p i p t "
};
