/* XPM */
static char *c9d32d242cc54fd4cdad49783a37d52emMM3MDmn0eVbV2E7[] = {
/* columns rows colors chars-per-pixel */
"60 60 144 2 ",
"   c #2E5B16",
".  c #2E5D19",
"X  c #325E17",
"o  c #325E1B",
"O  c #385E1F",
"+  c #2F611C",
"@  c #316017",
"#  c #35631D",
"$  c #39651E",
"%  c #36681F",
"&  c #39691F",
"*  c #375F20",
"=  c #385E20",
"-  c #366421",
";  c #3A6724",
":  c #396526",
">  c #3A6726",
",  c #3A6525",
"<  c #3C6425",
"1  c #3D6425",
"2  c #3C6624",
"3  c #3D6624",
"4  c #3D6725",
"5  c #3F6625",
"6  c #3E6725",
"7  c #3C6626",
"8  c #3D6727",
"9  c #3E6627",
"0  c #3A6622",
"q  c #346820",
"w  c #356921",
"e  c #376920",
"r  c #366821",
"t  c #366A20",
"y  c #376B21",
"u  c #376922",
"i  c #366823",
"p  c #366A22",
"a  c #376B23",
"s  c #366924",
"d  c #376924",
"f  c #366922",
"g  c #396820",
"h  c #3A6820",
"j  c #3A6921",
"k  c #3B6921",
"l  c #386A21",
"z  c #3A6A20",
"x  c #396822",
"c  c #3B6823",
"v  c #3A6923",
"b  c #396B22",
"n  c #386A23",
"m  c #3B6A22",
"M  c #3D6821",
"N  c #3D6823",
"B  c #3F6822",
"V  c #3E6922",
"C  c #3C6A22",
"Z  c #3C6B23",
"A  c #3D6B23",
"S  c #3F6A23",
"D  c #386C22",
"F  c #396D22",
"G  c #396D23",
"H  c #3A6D22",
"J  c #3A6C23",
"K  c #396824",
"L  c #3B6825",
"P  c #3A6925",
"I  c #396B24",
"U  c #386A25",
"Y  c #3B6A24",
"T  c #3A6827",
"R  c #3B6827",
"E  c #396B26",
"W  c #3B6A26",
"Q  c #3C6924",
"!  c #3E6924",
"~  c #3D6A25",
"^  c #3C6B25",
"/  c #3F6A25",
"(  c #3C6926",
")  c #3E6826",
"_  c #3F6826",
"`  c #3C6B27",
"'  c #3E6B26",
"]  c #386C24",
"[  c #396D25",
"{  c #3B6D24",
"}  c #3A6C25",
"|  c #3B6F24",
" . c #3B6D26",
".. c #3A6C27",
"X. c #3D6C24",
"o. c #3E6D25",
"O. c #3F6D25",
"+. c #3C6E25",
"@. c #3D6C26",
"#. c #3F6C27",
"$. c #3E6D27",
"%. c #3C6E27",
"&. c #3F6E26",
"*. c #3C6A24",
"=. c #3B6728",
"-. c #3F6728",
";. c #3C6A29",
":. c #3D6A29",
">. c #3D6C28",
",. c #3F6C29",
"<. c #3F6E28",
"1. c #3E6C28",
"2. c #3D7025",
"3. c #3C7026",
"4. c #3E7126",
"5. c #3D7126",
"6. c #3E7129",
"7. c #406724",
"8. c #406B24",
"9. c #406927",
"0. c #406B26",
"q. c #426B27",
"w. c #416C25",
"e. c #416C27",
"r. c #406E26",
"t. c #416F27",
"y. c #436E27",
"u. c #416C26",
"i. c #406629",
"p. c #406A28",
"a. c #416A28",
"s. c #416B29",
"d. c #406D28",
"f. c #426D28",
"g. c #416E29",
"h. c #436E29",
"j. c #426C2A",
"k. c #466D2A",
"l. c #426C29",
"z. c #407026",
"x. c #417126",
"c. c #42752A",
"v. c #41702C",
"b. c #43702A",
/* pixels */
"& g.* - - s + E > @ t % & e.g % 9.g.X , X O g $ O . t t t } m m %.2.@ # m % - >   N 7.0 y.$ o o O N o i - i - t a t % g ",
"m # - - . : + s % > ;.% @ & g , g N - 9 O , , 9 - % - % t m g - % # t m g & O X $ o O o 9.7.7.0 N g # - - i - m % m m m ",
"} t # # * . * E ;.- m # g % , - - O 9 g > , > ^ ^ # X # # m ^ m # - ^ # # 7.& g $ M y.$ X N k.$ N e.& - - # <.g g - % L ",
"% t t > i - - - 9 * - O > > o * # , , , # $ , g ^ N - > > g - i - # > % 9 N % & O & M w.o $ 7., # { ^ g - - - - % # # m ",
"3.y # q i =., , * , a., # > 8 * o - = , - - # # g ^ , # - - g > - > L - # O 7.N & B N & 9.$ 9 , g > - . - g - g m @ > O ",
"% y q % - . O , g O , & > > o , 1 , , 8 - , % % - o - * > # o * 9 - # L g & N N & & 9.$ O $ - . - > g # # % - > m % g N ",
"t t L + - - - , a.O 9 - g > i , O a.o o 9 <.L - > , , 7.* * - - # - O 0 N o = * $ 7.h.$ ^ $ $ g =.- > g - - i - m e.N 7.",
"% } %.t - - L L ^ , g g # % - o - > >   @ m # t , $ - ;.* - - > > g g $ N $ o , o O 9.$ $ , m - > - # - + q + q F & & # ",
"t q m m # q %.% % $ ^ # & & # % > - g # % - X 9 g X , g * : =.- . m ^ N e.& $ $ X O # N # # m . # o - - + a s s # 3.c.% ",
"a t t } - q % # . % g.$ & %.# - - - # - % <.# ^ o > - . - * . o - # g 9.N %.& 7.g ^ g & ^ # - L a q ;.i s q q q a y 2.F ",
"F % # } q q t # } # # & % @ { e.@ g.- g X g N g ^ % , 9 * =.=.* - - - , & % i., 1 9 # 9 N - - ^ a - a q a q L q } # # y ",
"y % # y q a q L t # O - N m N & $ N g % # - > # > - % - - + - o - ;.o - <.# * * 1 N 9 7.$ # N & # i i q # a %.g % % @ % ",
"} + # t a s # q t } g g 8 > N $ $ B N # g # O - - X % v.- - + : - - o - - * =   * = = * N $ e.& # # - L } %.m g & N # N ",
"6.y # % + + > g ^ - N # o $ o $ $ O # & ^ g # i > o g t + : + + ;.> - L > O = i.1 O = * O & # $ m m %.L . g N @ N & ^ X ",
"3.% @ ^ . L - o > # - - , g y.$ $ $ $ 7., $ - - # & L # i - o + g o # - - , $ 0 0 = 1 0 g.e.@ m # - # L t # # % m % # N ",
"# % { g L i i , ^ N > o X e.e.N $ N 7.7.$ , O g & <.L X > ;.=.: , o o - 9 X , 7.i.0 7.7.& & ^ N g g g i # % t t + % # a.",
"o g , # g # 9 $ X & , # g m % N $ $ 7.O ^ 9.7.$ & <.- + L i g > + - - L . ;.8 8 * O $ 0 , @ N # $ 7.#   @ % & % - g 9 & ",
"> g % , # > g o y.# O , g g g g $ N O $ $ N N g t <.- * t # # - # - L # - =.* 9 8 9 * 0 , g m $ 7.$ 0 N %.& N # 9 g g ^ ",
"g , O $ , O O $ 7.N O * - , g O 7.O $ q., , , i # s + - t # X <.# - m - - * i , > g 9 g g g g O 7.$ g $ # g m m g # - > ",
"g # N , g $ 0 N N N - , , g N O O $ $ O # * X # + s a i } # # L %.L m > - o > i # L O - , # g.$ B B $ O , $ , & g ^ * g ",
"X e.N N k.o $ $ m ^ , N 9 > 9 , 9.y.$ X $ g # # s . # ;.a . i - m %.- - > - g , # g , X , # % ^ O O O o # g g ^ g.N g 9 ",
"g $ $ $ $ $ $ 7.N g - O # O O $ N 9.7.q.N ^ ;.- o > a i - <.L q # $ # o <.m O 9 o g g g N %.L # O $ # O - L # 9 a.- # & ",
"q.X X B O 7.$ N g ^ m m m % # m $ O $ 0 $ 0 9 , =.i > g.a a L m & & # & g ^ 9.$ > > g O & ^ %.g - - , X % L - L L t m t ",
"7.O $ B q.O 0 # 7.x.X %.# # # O $ & g $ , $ X - * - # L + q # # { N N & # N & O g X # g # % - t - o - , - # i - % - L t ",
"9.& & $ $ 7.7.O N 7.N # # $ ^ X g ^ g ^ O g - - ;.# % # # % + q - m m & e.& g o % m @ - + + # + * - > - # N # g # & # 9 ",
", X e.e.7.7.7.$ $ # $ g # & 7.$ ^ ^ m ^ g > > g # g % # + q + + - # - %.N N # # & %.# - - } + q - * - =.o # # - # , g g ",
"% % # N & 7.$ 7.m N e.& # % $ $ ;., g g g ;.^ ^ g % - %.q - s - q - ;.8 g > g , L m - - m # # + - ;.s s - # ^ O # g - % ",
"^ m @ # & & B $ & N & @ m N 9.N g O - , ^ g @ N # & m % + a q s - # - i # X > g # ^ - # - > - - s + * o a a L # , > g t ",
"^ @ %.& $ x.& & # @ & N $ X 7.$ # > # 9 i # - % # } # a %.+ + s i ;.- . - g - > - - - - #   # > . # - g * - - s * - i # ",
"9.X # x.x.{ $ M N & # & , $ N o # g N , - #   ^ } m g - a q =.- . * * . - > # o # - # m N ^ # @ ..t ;.o . . i - - + + - ",
"g.% & x.& # @ B # & N & X 9 , $ % O g , - O - m F % q q + ;.- - i - * =.- - g g - - @ g.L t . - q a - % o - ;.. . q - L ",
"X # & # % @ $ $ & N & 7.$ $ N N # N $ o - g - + N F + q L + . : - + - - # - 9 O > X % & % m # L - - e.^ ;.;.i . q q # <.",
"X N # m & @ & & k.& & M w.7.$ w.g 9.g ^ - 1 9 # X m # - m # # % g o * q - ^ , - O # & & e.# X , $ # 9.m g } # q % # # <.",
"> # g N w.& y.y.M & $ $ 7.@ $ y.& # ^ g L O - 9 ;.- g %.- % # # # # - - , o O * , # N # % , - - 9 , N t # - 6.^ g - > # ",
"o , # % @ & B $ & B & w.& # $ M L - % # % g g > > - <.L L # ^ - L - * ;., g O $ h., g # , k.- * 1 * - X } L - # - o X - ",
", , 0 # & x.& & & $ & w.x.& 7.N - X - ;.g g - i o o - - # ^ - # - - g - ^ , * 9 N ^ ^ , - ;., : 1 , 9 , @ ^ g o g , g ;.",
"g - o , , @ # @ w.& @ # { { m % - g > <.9 N - L - - i - - > & g & %.;.g 9 - 9 , * X m e.g ^ * - , - o % - @ X N O g g > ",
", , # 8 g - 9 # { x.{ $ w.{ # # i g L - g g # # t # - # # O N N e.N o g O , 7.0 g ^ & % & L , * > - O L ^ N - N $ , X > ",
"O X > ^ * - X % & w.^ e.$ g & # t a + # # - m - - } } } # g o o m - , * # * # - $ g & N & & $ o # L g L 9 % ,   g g g =.",
"- # - - - > , & & $ N g # g # g L t s ;.%.q <.g L a # # g g * , # X X - g # > - , * o ^ N % , g # X # g & , g - , % - - ",
"* ;.> - - > N m @ $ g O - - - # N o X i + q - t m L # # g m ^ ^ > - , g - g g # N , # # g m ^ ^ y.O # X @ g.g X - - * . ",
"* . - L o X t } & % # - # - > - 9.g o . i ;.- # % # o , ^ N ^ o g o - g ^ m > - ^ O # , , #   a.M @ N % . - %.- - - - i ",
"- - - . . - ^ L F % g g m L > g a.g g - i t i ;.L g $ g & m # - # O o - - - - , $ N g # , - g N 9.# % g % t ^ # . * =.;.",
". - =.;.- s > - % t g O ^ O X , a.# - O > # - g , N $ a.h.# - g % <.> ;.# . o , $ $ 7.> # # 9 g % N N X . g g # g - o o ",
"> . . - o > # g - X # O - ;.> g $ ^ g $ N N N o # { N N - g - # # ^ > - # g * 9 g # m N g X X g # $ # , O o g , ^ g , X ",
"L ;.> - - O # i.a.> o , - # > g g & g , N # N & N & m X O i > g g g # L ^ N O g 1 # # N o & > , 9 g , O ^ 9 g g > $ - L ",
"^ } - g - ;.- , 8 8 , 0 9 , $ 9.& % g & & $ $ 9 & # # X # @ # o m } L m g N 7.* , o O N g 9 g * , # N g 9 N 9 # o > g - ",
"L L - - - , , * , o $ O $ g N N & # , N @ # $ $ % - g - # # # # # # % L N 9.O O 0 o 0 * $ - , g $ & O 9 9.N - > L o - - ",
"- g * . - * * - - , , # * - 9 % & # N m & N & $ m m % 9 % g g g - - # # , 9.$ 0 9.O o $ N & N $ $ 7.^ N $ L # - m - t - ",
"- o - , * : , * o g 9 # - - # & & N & # # ^ N N m # - g # - g 9 g % , g 9.$ 7.N N 7.7.N & 7.N & 7.$ # & g # q i L <.a + ",
"=.* i - o o * a.N N N g g X > g & ^ $ g @ %.m # m . # O N & , g g g O # N 7.9.N $ $ 9.N $ $ $ 7.7.o $ %.- s > # L ;.# # ",
"* i O - * $ N 9 9.9 X , a.^ # , g g g # & # % # - L O 0 9 m N & ^ g & ^ 7.$ $ $ 9.& & X O $ o i.0 O 9.N q q # - - - i O ",
"1 g 7.7.9 ^ N $ g N # g # # . L # % %.g.& # & - # - g.^ # $ N $ $ $ w.N & & $ $ e.N & & g g N 9 0 , , g - o i , o > # - ",
"9 9.g # g g & N N g $ # # - # o # % # g ^ ^ - q > o ^ N N o & N q.y.$ 7.N O O N g N { N 9 # $ ^ g , o , o - - > - ^ , ^ ",
"- # - t %.- & N $ X L v.- q i i # q o o # % g L & g ^ 9 O & 7.9 7.7.N N , ^ O % g g $ & ^ , g > , N , , - o > - ;.m g O ",
"i o - - - # ^ g % L # # # > } L s o - - - > > g > # # g $ N # O $ & 9.# # - g g & % & N $ $ , - o g 9 8 - g - ;.m X - 0 ",
"- o - . - + : ;.- g L # + % - # o . : =.- i =.- i o - - X g ;.# N g g - # { & & N & & # N g o - > , , X g L # m %.g o - ",
"- * s s + - o E - L m - - @ N % o - - i i - - * - =.- <.g ^ - , & X g # w.y.$ $ { { $ % $ g 9 # O X g 9 & % t . & & # - ",
". . - =.: : - - t % t # # % L ;., > , o - # i @ a 6.L <.g - - - m % & g & $ $ # 7.$ & ^ X N > g # 9 , g & & - # % % > t ",
"s - ;.;.- - a i t 3.y #   } %.m & & $ 9 # - L > q a # L - % g - & m # g $ $ O & $ $ $ o N 9.- @ g & g # & %.X O # m + # "
};
