/* XPM */
static char *result[] = {
/* columns rows colors chars-per-pixel */
"60 60 140 2 ",
"   c #020202",
".  c #0D0D0D",
"X  c #121212",
"o  c gray10",
"O  c #3E3B15",
"+  c #222222",
"@  c #3B3B3A",
"#  c #472E15",
"$  c #4E2C15",
"%  c #4F2F19",
"&  c #502D16",
"*  c #463416",
"=  c #4A3216",
"-  c #443B17",
";  c #493917",
":  c #473718",
">  c #4B3518",
",  c #443C18",
"<  c #483C18",
"1  c #573017",
"2  c #5B3217",
"3  c #553119",
"4  c #5C3319",
"5  c #513C19",
"6  c #61371B",
"7  c #65391C",
"8  c #6B3C1D",
"9  c #703F1F",
"0  c #533522",
"q  c #553926",
"w  c #5D3C26",
"e  c #573B29",
"r  c #593E2B",
"t  c #3B4517",
"y  c #374618",
"u  c #3E4519",
"i  c #3D4B1A",
"p  c #2F5E1C",
"a  c #36541B",
"s  c #3B541C",
"d  c #345D1D",
"f  c #3B5B1E",
"g  c #2F681D",
"h  c #35641E",
"j  c #3A651E",
"k  c #35691E",
"l  c #3A6A1E",
"z  c #3A701F",
"x  c #345E20",
"c  c #3B5D20",
"v  c #356421",
"b  c #3A6521",
"n  c #366921",
"m  c #3B6A22",
"M  c #3C7121",
"N  c #414517",
"B  c #43441A",
"V  c #424B1B",
"C  c #5F4D1F",
"Z  c #42531E",
"A  c #72401F",
"S  c #40671F",
"D  c #455020",
"F  c #445C21",
"G  c #5F5521",
"H  c #525D22",
"J  c #5C4637",
"K  c #6C4125",
"L  c #754220",
"P  c #7C4522",
"I  c #744E23",
"U  c #7E4923",
"Y  c #645220",
"T  c #6D5623",
"R  c #655F25",
"E  c #7C5325",
"W  c #715B26",
"Q  c #7B5927",
"!  c #7D5928",
"~  c #644632",
"^  c #684A36",
"/  c #634B3B",
"(  c #7F5133",
")  c #416422",
"_  c #416B22",
"`  c #536022",
"'  c #424140",
"]  c #4B4B4A",
"[  c #5A5A5A",
"{  c #625851",
"}  c #766255",
"|  c #786457",
" . c #786558",
".. c #7F6E62",
"X. c #747474",
"o. c gray47",
"O. c #834A24",
"+. c #8B4E26",
"@. c #824E2C",
"#. c #8D5227",
"$. c #835827",
"%. c #855728",
"&. c #8D542A",
"*. c #875928",
"=. c #8B5828",
"-. c #925127",
";. c #935429",
":. c #9A562A",
">. c #96582B",
",. c #9D592C",
"<. c #835131",
"1. c #8B5430",
"2. c #AC4E26",
"3. c #B14A24",
"4. c #A5552A",
"5. c #A05A2C",
"6. c #84746A",
"7. c #8E8076",
"8. c gray53",
"9. c #8E8782",
"0. c #9A8E87",
"q. c #9F948D",
"w. c #959595",
"e. c #9D9D9D",
"r. c #A49A94",
"t. c #ABA29C",
"y. c #A2A2A2",
"u. c #BAB4B0",
"i. c #BEB9B4",
"p. c #C3BEBB",
"a. c #C6C1BE",
"s. c #C9C5C2",
"d. c #CDC9C6",
"f. c #D3D0CE",
"g. c #D6D4D3",
"h. c #DBDAD9",
"j. c #E5E4E3",
"k. c #E9E9E8",
"l. c #F5F5F5",
"z. c #FEFEFE",
/* pixels */
"b m h v v v h n m h b k n z l k m m v j d h v v d d k n n m m m z z h h l j H R E =.:.*.R b d j h b v v v n k l m n k m ",
"m j h v p v v v b b m n h l j j m ) b b j j b m v h k k n n m j k h k m S Q :.,.:.,.5.5.,.Q F j j b v v v v n l k k m m ",
"m k h v x d h h m b b b k k v j b v b b b b b m m h h d d s i i N B i s G >.T W E ;.5.5.5.5.*.` l m n v b v m m m v h m ",
"l k k n b v v v b j b j j b v x v b b b v m v m m b i ; = $ $ & & $ $ $ O.U I >.*.E $.-.,.5.5.;.H M m v v j v h l h h b ",
"m n g v b b b b x b m b h b b v x v b b b b h d V = $ $ q | / & $ $ / } w 3 ;.O.C $.=.:.5.5.5.5.*.Z h h j l h h l d j h ",
"k n k v v h h b b v b b m b v b b b c b v v d ; $ & $ / a.l.j. .$ ..k.z.i.~ 8 4 -.;.Y W >.5.5.5.P = a h v h v m m b b l ",
"k m m v b v b b _ c b v b l v b v m x v m f : & & & q p.z.z.z.d.J g.z.z.z.u.3 3 A 7 * Z H Q *.L % & = s h g n v m m m S ",
"m l m v v b m m _ b m n h h h d b b v d a : & & & $ 7.z.z.l.w.y.9.e.e.l.z.z.6.$ 1 & & * s j j < & & & * d v h n m l m v ",
"n k m m v k m k h l m b b k h h l v k d < & & & & % s.z.z.w.  + X.o   y.z.z.i.$ & & & & - d b s $ $ $ $ - v v n n M M n ",
"n k m m n k k h g h m j s B ; * , i d i $ & & & & r h.z.z.]   . ] .   [ z.z.g.q & & & & $ i c i # $ $ $ $ i v k g M M k ",
"n h k m k h n h n h h B $ & & 1 4 4 ; * & & & & & e h.z.z.o.. ' { @ X 8.z.z.f.0 & & % & & = : 4 4 3 $ & $ # f n n h k n ",
"n m h k v n k n n h i $ & & L -.>.>.A $ & & & & & $ t.z.z.l.h.r.w y.h.l.z.z.r.$ & & & & $ $ L :.,.-.9 & $ $ u n k h h k ",
"M g v n n v h n n j = & & L 5.5.5.5.A & & & & & & & w q.s.s.r.~ 2 ^ r.d.s.0.w & & & & & & & L 5.5.5.5.A & & # f l m j l ",
"M n h h g g n b m s & & 4 :.5.5.5.5.7 & & & & & & & $ & K ( +.-.,.-.-.@.K & $ & & & & & & $ 7 5.5.5.5.-.3 & $ t b l m h ",
"m k h l p n b h b u % & 8 5.5.5.5.,.6 $ & & & & & & 9 -.5.5.5.5.5.5.5.5.5.-.8 & & & & & & & 7 5.5.5.5.,.8 $ & * j h j b ",
"h k l l v v v b m i % & 7 ,.5.5.5.,.6 $ & & & & & P 5.5.5.5.5.5.5.5.5.5.5.5.5.P & & & & & & 7 ,.5.5.5.,.7 & & # d h b m ",
"h m h j b h m j d s $ & 3 ;.5.5.5.5.8 & & & & & L 5.5.>.>.5.5.5.5.5.5.5.,.>.5.5.P & & & & $ A ,.5.5.,.-.3 & $ = f j l m ",
"m b h v h k v d _ b : $ & 9 ,.5.5.5.P & & & & 4 :.5.>.( <.1.5.5.5.5.,.:.<.( 1.5.:.4 $ & & & O.5.5.5.:.8 & $ $ $ c l b m ",
"m v b b b v v v m m s = & & 7 O.;.+.8 $ & & & A 5.5.;.>.5.5.5.5.5.5.5.:.,.,.1.,.5.L & & % $ 8 -.;.O.7 $ & $ $ $ f b b m ",
"h b b b b c f f f j c c < & & & 2 5 i - & & $ L 5.5.,.,.5.5.5.5.5.5.5.5.5.,.:.5.5.P & & $ , V 5 1 & $ $ $ $ & = f m h b ",
"h m S b F : > $ $ = - s d s V B Z ) j s > & $ L 5.5.5.5.5.5.5.5.5.5.5.5.5.5.5.5.5.P $ & * d n f i u t * & & & < m m l n ",
"l j j V $ & $ & & & & $ u f b b b _ m _ s $ & 7 5.5.5.5.5.5.5.5.5.5.5.5.5.5.5.5.,.8 $ $ s m k h j c a * & & & B m b j b ",
"S d u & & $ = * = = & & & - h h b b j b j B $ & @.5.5.5.5.5.2.4.5.5.2.5.5.5.5.5.+.3 $ y j l M v v f : $ & & = f l b m n ",
"l s $ & = B f f ) Z > & & & t h b b b j j d i = 4 -.5.5.5.5.4.3.2.2.2.5.5.5.5.-.4 = i h h h k n v u & % & & B k h v m k ",
"M i & $ V ) j j _ _ s > $ 1 = a v M m m v m v a : 3 O.,.5.5.5.4.4.4.5.5.5.5.O.4 * f h h p h g h u $ $ & & = a n h h v m ",
"n , & : F S j f j j j Z $ $ $ u m m l m b c i i - $ & 7 +.;.5.5.5.5.5.:.O.8 $ $ $ ; t d h v d O $ $ & & $ t h h v b m m ",
"v B & * j S > : s l l j * $ & < m b c i , = $ & $ & $ $ $ 3 6 8 A 8 6 3 $ $ $ & $ $ & = B , $ $ & & & $ B v m v v b l h ",
"M V & = f j i > - j j h < $ & ; c i : $ & & & & $ & & & & & $ $ $ $ $ & & & & & & $ & & & $ & & & & & - v b b h b b m v ",
"l a = $ N S l - - h h j - & $ $ = & & & & & & & $ & & & & & & & & & & & $ $ $ $ & & & & & & & & & $ * d h x v v d v b h ",
"S d t $ & ; - 1 N k k j * $ $ $ & & & & & & & & & & & & & & & & & & & & 1 $ 1 $ & & & & & & & & & * f h p x n v d g v k ",
"z l j V ; $ = V h k n f = $ & & & & & & & & & & & & & & & & & & & & & % $ $ & 1 & & & $ & & & & : c m h v v n h g h n m ",
"h h l h h f d j m m l f # $ & & & % $ $ & & & & & & & & & & & % & 3 & $ & & & & & $ $ 1 & & & * d n m m b n v d v v v m ",
"d k h m l d S S _ z l V = & & & = B f V $ & & & & & & $ & 6 L +.-.+.O.8 2 $ $ & & & & & & $ , x b b m m n m h h h h h m ",
"j h b m z l S S l l Z = & & & - s b m - & & & & & & & 3 P :.5.5.5.5.5.5.-.8 & & & & & & & > d v ) b m v v m M m m v m j ",
"v j j h h l l j l l N & & & $ s l n d = & & & & & $ 4 +.5.5.5.5.5.5.5.5.5.,.L & & & & & % $ s v b c v d n n b h v v g v ",
"b v j j l l l l l f = & & $ = f j h i & & & & & & 2 +.5.5.5.5.5.5.5.5.5.5.5.,.L & & & & % & i v m b b b h m v d b b b ) ",
"b b d b j j j h l V $ & $ $ * h v v B $ & & & & & U 5.5.5.5.5.,.5.5.5.5.5.5.5.:.7 $ & & % & ; x b b d b h h h l x b b b ",
"b b b b b v l h l ; & & $ $ - h m h < & & & & & 7 ,.5.5.5.,.5.5.5.5.5.5.5.5.5.5.+.3 & & & & : d v v v b m b v j j b v n ",
"x x b m j j h v f = $ $ $ $ t h v v : & & & & & O.5.5.5.5.5.5.5.5.5.5.,.5.5.5.5.,.8 $ & & & $ d h v h m l k j d b m v m ",
"v v h v b j j v Z & $ $ $ $ * * ; B $ & & & & 4 :.5.5.5.5.5.5.5.5.5.5.5.5.5.,.5.,.O.& & & & $ u u ; ; , s j j h j v v v ",
"v b v v v v m n N & $ $ $ $ $ $ & & $ $ $ & & 9 5.5.5.,.5.5.5.5.5.5.5.,.5.5.5.5.5.-.1 & & $ $ $ & & & & $ V k h v v x x ",
"x d v v x d m b ; & $ # $ $ & $ & & & $ $ & & P 5.5.5.5.5.,.5.5.5.5.5.5.5.,.5.5.5.,.6 $ $ $ $ $ & & & & % $ s h v v v v ",
"v h v v d v b b = & $ $ & & & & & & & & $ $ & +.5.5.5.5.5.5.5.5.5.5.5.5.5.5.5.5.5.5.8 $ $ $ $ & & & & & & & < h d h v n ",
"d v v n v m v c = & $ $ & & & & & & & & $ $ & -.5.5.5.5.5.5.5.5.5.5.5.5.5.5.5.5.5.5.L $ $ & & & & & & & & & = a b h x v ",
"v x x v v v v c $ $ $ & & & & & & & $ & & $ & -.5.5.5.5.5.,.5.5.5.,.5.5.5.5.5.5.5.5.9 $ & & $ & & & & & & & $ i m j b h ",
"m m b v b x v i $ $ $ & & & & & & & & & & & & +.5.5.5.5.5.5.5.5.5.5.5.5.5.5.5.5.5.5.8 $ & & & & & & & & & = $ i m b b n ",
"m m v v v m b i & & & & & & & & & & & & & & & O.5.5.5.5.5.5.5.5.5.5.5.5.5.5.5.5.5.,.7 $ & & & & & & & & & & $ i v v j v ",
"m m h v v b b B & $ $ & & & & $ & & & & & & & 8 5.5.5.5.5.5.5.5.5.5.5.5.5.5.5.5.5.-.3 & & & & & & & & & & & $ i n h v h ",
"v j d d v x v V & $ $ & & & & & & & & & & & $ 6 ,.5.5.5.5.5.5.5.,.5.5.5.5.5.5.5.5.O.& & & & & & & & & & & & $ s n m n v ",
"v h v b v v b V & & $ $ & & & & & & $ & & & & & ;.5.5.5.5.5.,.5.5.5.,.5.5.5.5.5.5.9 & & & & & & & & & & & & > d m m n v ",
"n x b h x x v D & & $ & $ & & & & & & & & & & & P 5.5.5.5.5.5.5.5.5.5.5.5.5.5.5.:.6 $ & & & & & & & & & & $ , v m m v d ",
"v v h j x v b D $ & $ & & & & & & & & & & & & & 4 :.5.5.5.5.5.5.5.5.5.5.,.5.5.5.O.& & & & & & & & & & & & $ y h v v v j ",
"b ) m b m m m Z = & $ # & & & & & & & & & & & $ $ L 5.5.5.5.5.5.5.5.5.5.5.5.5.-.2 $ $ & & & & & & & & & & * c b d b v b ",
"b m j j l b l s 7 A A 5 = & & & & & & & & & & $ & & O.5.5.5.5.5.5.5.5.5.5.5.:.8 $ $ & & & & & $ & & & & $ B v v b m b m ",
"h v n j m k k ` :.5.5.:.6 $ & & & & $ & & $ & $ $ & 3 O.,.5.5.5.5.5.5.5.5.:.8 & $ $ & & & & $ & & & & & * d b n m m m h ",
"v h v v n h l W 5.5.5.5.#.= & $ $ $ $ $ $ $ $ $ & & $ 3 9 -.,.5.5.5.5.,.O.6 & & $ $ $ & $ $ $ $ & & % > s v b m k h h l ",
"v v v v v g v ! 5.5.5.5.>.Z * $ $ $ $ $ $ $ * u $ $ & & $ 3 8 P O.O.9 6 & & & & & B - $ $ $ $ $ $ $ $ i m k h l m l d v ",
"v x v v v v d $.5.5.5.,.E < $ $ & & $ $ & & # t i $ & & & & & & & & & & & & & = N N = $ & & $ $ & & % t l k l h k l h h ",
"x x v m b n v %.5.5.5.&.B $ & & & & $ $ & & & # x c < $ & & & & & & & & & & > s s $ & & & & & & & & $ $ s l l h j h m n ",
"v v m m v v v Q ,.,.,.=.u $ & & & & & & & & & * f m h i : $ & & & & & $ = t d b a = $ & & & & & & $ $ # f m d h h k h h "
};
