/* XPM */
static char *result[] = {
/* columns rows colors chars-per-pixel */
"60 60 85 1 ",
"  c #16270A",
". c #16290B",
"X c #192C0C",
"o c #1D330E",
"O c #1D3411",
"+ c #1D3A12",
"@ c #212C0F",
"# c #20370F",
"$ c #20390F",
"% c #2E2F13",
"& c #223511",
"* c #2C3613",
"= c #223C12",
"- c #2C3C15",
"; c #333415",
": c #3B3416",
"> c #333A16",
", c #3B3718",
"< c #3D3A19",
"1 c #413617",
"2 c #423914",
"3 c #453619",
"4 c #443A1A",
"5 c #4A3B1C",
"6 c #533D1B",
"7 c #583F1A",
"8 c #254314",
"9 c #294515",
"0 c #264B15",
"q c #2A4B15",
"w c #2C4518",
"e c #2B4C19",
"r c #3A4118",
"t c #334E19",
"y c #2E5316",
"u c #2D5319",
"i c #2E5C1B",
"p c #305417",
"a c #325B17",
"s c #315519",
"d c #345D1C",
"f c #395D1E",
"g c #2F631C",
"h c #2F681D",
"j c #35631E",
"k c #39651E",
"l c #35691E",
"z c #3B6A1E",
"x c #3E701F",
"c c #345E20",
"v c #3A5D20",
"b c #366421",
"n c #3A6521",
"m c #366921",
"M c #3B6A22",
"N c #3D7121",
"B c #4D441E",
"V c #55411F",
"C c #5B431E",
"Z c #62461D",
"A c #67481C",
"S c #694A1E",
"D c #40671F",
"F c #40721F",
"G c #554220",
"H c #5B4522",
"J c #534920",
"K c #5E4824",
"L c #614721",
"P c #634B24",
"I c #6B4D22",
"U c #684F28",
"Y c #6E5024",
"T c #6C5229",
"R c #715326",
"E c #73562A",
"W c #76592C",
"Q c #795C2E",
"! c #416522",
"~ c #416A23",
"^ c #427520",
"/ c #447921",
"( c #487F23",
") c #4B8424",
"_ c #4D8825",
/* pixels */
"nMjbgbgmmbnmmjpyeuqidjkkjdlmmMMMzNhjzkjjikDk~kffjbcbbmlmmmlM",
"Mkjbcbbbnnzi80a$qzd8ppjnnjjbmmMkkklmMkjdkdffkkkkknbbbmmzlmMM",
"MmjbcdjkMd88oF)kq)(jXppaMjkjbMMMjnzaueqq#qspyqq$kNbbbbMmmbkM",
"zllmnbbbf$x(jzFFzFFFy_FaenklMbmbjd8akzFF8k)F)FDXjMMMbnbjkjkM",
"MmhbnnnnceN(FFFFFFFF)FF)jqjbjbmuqq.F)FFFDFFzFFa#bMkjkkkbljkj",
"mmmbbdbnnfwjFzFFkkakFFF)/e=bnf8uFFkzFFFjjkFFzq.8nnbjbkbnMnnk",
"lMMbnbbn~vkqy#FFFFzkkkFF/q8qd8XkFFFFkakFFF)FFa jMbbnbhmmMMnD",
"mzMbbnMMzkzk8.ykkkaaayqaFF)^+8yyFFkazFF)FFzzz8qkmbjjjjjbMMMb",
"mlMMhkMjkmbeyX F)))F0aFzkakzqFFFFakF)FFF(Fp.O8nbbbbbbmbmmNNm",
"MlmMmmlhhu9zFFqFFFFFzF))/FzoXaFFzFFFFFkzFzd+ufnnmbmbhmmmhNNm",
"mllMkjbbio8/)FFFFFFFFFFFFFDXkFFzaF)FFkX-989jMkbMmmmbmmMlmjhm",
"mbkmmmli8zqaF)Fzkkakkzkkdda8FFDa$8yaa$#fffMMkkMkbmmbbmMmljjl",
"Nhhmmbh+F(FFFFajzFFFFaDFFFFqpkaaDzzFFk9=f!fvnn~mjjkmMMnnMzkz",
"NmjjbguXp^FzkzFFFzaa$D_F))FqokFFzFFFF/x==fvvkzkkMMMMjlljMkMj",
"MljMhb8xz^FFFF)FaFFFkFFFFFFpkFFFFzjF//^#=8t!~Njnjnklhhjkbknn",
"jlzkkuu)//kdF)kkFF)FF)FFFFa$aFF)FFFazFFzFz-cllmMzblljllzjjbM",
"jkknM09fdd8 azq))FF)FFaF)Fq&*tyF)F)FzkFF)Fk8fklkkzkajllMjkMm",
"Mnkbbmjpdpeto@ yF)FFazFFFFFtA<qFFFFFFkaFFF8 cMzk!nmmmMzkMMkM",
"nbbnbbbk~~ksqFFzFFFaFF)FFFFrEVaFFF/^FFFkFFpq8nMj!!nkjMMlbnbM",
"nbnnnvn!nzk8FFFF)kyF)FFFFayVQQCakkkFF)FzFFFF=fMn!bkfbkknMMkb",
"jMznMvkknMps)FF)zyFF)FFF= BWQQQC2@XF///FFFFa#alMkvdajnnMMMMl",
"zkkn!bbMMMeX9FFFaFF))F)F^9JQQQESA:=pzF/xkFFpoamjkvbjbMkMMnkn",
"~ffkv!nnkj8paFFjzF)FFFFFj#KQQESSL4yu989o8FFFqyzlbbvcbMbmznMm",
"Mkkz~vkk~fy()Fzz^FFFFzFy8wKQRIZZK*zkkjuw8azz8qzlbcjbmbbmjbMl",
"Mnzzn!Dfnpk)FFDF///^==+8kp<HLPTQW4fzzznjji8+OubgjbbnbnbkkkbM",
"kv~MDDDkzw#dFFFF///^98Mbbb8BQQQQQCwMmMbkMMjjimggkcbmbjjkbnMn",
"blklkFkkzqqzFFakxzu9ynMMbkiBQQQQQI>lmbnnMmmjMbjgbmmbbbMbbnmb",
"MljkkMDkz0zF((9.=+0fMbjzknd4QQQQQR1ubbnMnMbbbbjbjbbcmnnbbnMb",
"kjlzzNzkk8z)Fd8qabbnbjjkbMd<QQQQQY7-bmbnbbnjbdjkgjbjgbbbdbbk",
"Mjjzxzjzzqpk9efkmbnnbbaMNMb>QQQQESA;dMbdjjblMzjgMmmjicbbbjmj",
"Mzzxljjzkg0fjzkbbbnnbbblMlj;WQQWIAS4embnkjkxzkgbbmMbbbmjihmM",
"fjzkhkjkkMz!nk!nbMkkbnbjMmi>QQEIIL6*ubMnngbkknbMbbMMnbbjbbbM",
"jjjMkjkDFkzk~DknkMMMbnnbbzi;UKGGGPP*bbnnbbnkMnbbnnMMmMbkjjjM",
"kbmMkzDFMzMkMkk~kbMlnbjMnnku%PTEQQQ,ccbvnjzbnnbbMnMbbnNmmbmk",
"bkkkgzzkkMFzzkkzMbkbkbMznbMM>EQQQQW5ennb~nMbnMbbnvbfmmnkbbjb",
"bnbjzzzzkkkzMMM!kjnMnMnlccbb-EQQQQQHrbv!n~Mnn~nbMnnnbnndbnnn",
"nnvbnkjjzzklMNzbbbMM!kbMkkbb*EQQQQQS;fnnbkMMnMbnnndbkjjkvnnn",
"nvbMbkzkzNzzMMkkMmmmknbjmbkc*EQQQQES:dMnbMllnMvbbbbnMMbMbbbM",
"bcbMfbknMMzMkMbbmmbbkmMbmmmM>EQQQQIA6wjbjkkzbMbcbbmmlkkinzbM",
"cbkbnkkbnzMkkbblmbmmmbMmmmhj<WQQWISSZ-kbbkjMMMnnjjjnmzbknnbb",
"cnbbcbmmjjkjljkbndjmbblmnmgi4QWTILKH39mbnnkjnmMM~dkfjMmdbbcc",
"bcbmbbMMzljkjkkk~ndimMbkbbjd*5GGHHLI;imnMkbnkkjMnkkjgkMkbbcb",
"bdbccbMMlmlknzlnMnnkjmnMMkbMu3QQQQQQ5ubknnnbbbnMMkkbhmMbcjbm",
"bbbmbnnbllMjMjjkMbbjmbbkkMnMb4QQQQQQG8jkkkzkbkMMmMzjinkjkbbc",
"bccbcbnnkfjfbMbmlMlnMMkjkMMms4QQQQQQL-jnnjzMkjjjkkjccbMnMnbk",
"nMnbbbbMMMfbkbMbMbMnnknnMzljeBQQQQQWI>ankjf~dknbMnbk~nnkMkMb",
"MMbbbMnnnnnnMnnMMkMnkkknzjjjqGQQQQQWS:fvbffnnMnbnkn!!znnjbkb",
"MMbbbbncnfnvbnnMzjbkkkkjkkkkwHQQQQQES4ebkfnbkkkkkknn~nbnmcbj",
"bkidbvbbbbkvbbMkzkMzkMznzMnM8UQQQQESA6wk!kfjkkzknMMMkMjbmnmm",
"bjbbbbncjnMbbbnkMzkjbMkDbbkj-EQQERSSSZ-knnnMnMDnDkbmbmbbMNmc",
"mcbkccbMnMzMncnnnzkljMMjnbci;UTISLLCC3-Mk!zznbnnDfkMmbmgMMbf",
"bbfkcn!nMnbkMMbnbzlkllkkbnnn-:KKHKUUT30kMkzjkkvnnvMMbbbbbbbk",
"n!nMMMMnknkkjbdkllMMzkkjbbMMeBQQQQQQQ7wk~MMkkjMMnnnnkgbncnbb",
"nMkkMnkzznnmbmibjbkbzzkhbbMMeKQQQQQQEC-MMMzzMkn~nbbnjbbbbMnM",
"bbmkMbzMbjmMkbbmhbjdjblbnMMM-UQQQQQQEZ*nMmlk~bnnnMnnbbnmMmbk",
"bbbbmjmMbmkbjbmmbgbbbMnMMbbb*EQQQQQQIZ*nkzM!knnnjmnnnbnMlkjz",
"bdbghbbMbMMbakmkcdbMbnnbbbbi,QQQQQQEAA%jzzljnnkjnnbbMmjMmzjc",
"bcmbbbcbnMnbjhmbbgbnbbbbnMnuGQQQQERAAS:aDxzjb!kjccnnlkljlzkb",
"ccnMbmchlmmbjkM~nkbfjjbjmMM-UWWTRSSSSI1pzzkMknbbkMnzzzkjkjmm",
"bbnMbmmmmNmhjMMnnljMjmmMbMbe-<4535544<*azkfjkMbjkknbmMdjjljj"
};
